<?xml version="1.0" standalone="no"?>
<!DOCTYPE svg PUBLIC "-//W3C//DTD SVG 20010904//EN"
 "http://www.w3.org/TR/2001/REC-SVG-20010904/DTD/svg10.dtd">
<svg version="1.0" xmlns="http://www.w3.org/2000/svg"
 width="512.000000pt" height="512.000000pt" viewBox="0 0 512.000000 512.000000"
 preserveAspectRatio="xMidYMid meet">

<g transform="translate(0.000000,512.000000) scale(0.100000,-0.100000)"
fill="#000000" stroke="none">
<path d="M2 1368 c4 -160 9 -204 26 -259 39 -119 129 -236 235 -303 96 -61
158 -78 306 -85 l135 -6 6 -30 c4 -16 13 -59 19 -94 41 -216 216 -388 443
-435 96 -20 120 -20 216 0 227 47 402 219 443 435 6 35 15 78 19 94 l6 30 704
0 704 0 6 -30 c4 -16 13 -59 19 -94 41 -216 216 -388 443 -435 96 -20 120 -20
216 0 227 47 402 219 443 435 6 35 15 78 19 94 l6 30 135 6 c142 7 177 15 280
70 114 61 219 189 261 318 17 55 22 99 26 259 l4 192 -2562 0 -2562 0 4 -192z
m1381 -394 c27 -9 66 -35 93 -60 183 -179 60 -484 -196 -484 -203 0 -343 211
-261 394 25 58 99 130 154 149 56 20 153 21 210 1z m2560 0 c27 -9 66 -35 93
-60 183 -179 60 -484 -196 -484 -203 0 -343 211 -261 394 25 58 99 130 154
149 56 20 153 21 210 1z"/>
</g>
</svg>
